<svg width="205" height="40" viewBox="0 0 205 40" fill="none" xmlns="http://www.w3.org/2000/svg">
<path d="M43.3401 30.0747C42.2967 29.5193 41.4344 28.6791 40.8548 27.6609C40.2389 26.5501 39.9273 25.3041 39.9563 24.0367C39.9346 22.7764 40.2389 21.5375 40.8403 20.4267C41.4127 19.3943 42.2749 18.5399 43.3256 17.9703C44.4414 17.3722 45.6949 17.066 46.9702 17.0874C47.8976 17.0802 48.8178 17.2155 49.7018 17.4932C50.4771 17.7353 51.1944 18.134 51.8031 18.6609V10.4727H55.9693V30.5232H51.9407V29.1134C51.3031 29.7186 50.5495 30.1886 49.7163 30.4948C48.8323 30.8009 47.9049 30.9433 46.9702 30.9291C45.7094 30.9504 44.4559 30.6585 43.3401 30.0747ZM50.3539 27.0699C51.0205 26.6285 51.5277 25.9948 51.8031 25.2543V22.7835C51.5495 22.043 51.0495 21.4093 50.3829 20.9821C49.6946 20.5193 48.8758 20.2772 48.0498 20.2915C47.0281 20.2559 46.0355 20.6261 45.3037 21.3239C44.5791 22.043 44.1951 23.0256 44.2385 24.0367C44.1951 25.0407 44.5791 26.0232 45.3037 26.7353C46.0427 27.4259 47.0354 27.7891 48.0498 27.7535C48.8685 27.7677 49.6728 27.5327 50.3539 27.0699Z" fill="#1A1818"/>
<path d="M59.5343 14.8661C59.0923 14.4603 58.8532 13.8836 58.8677 13.2926C58.8532 12.7016 59.0996 12.1391 59.5343 11.7332C59.969 11.3132 60.5559 11.0853 61.1646 11.0924C61.7732 11.0782 62.3601 11.306 62.7948 11.7332C63.2296 12.1391 63.4687 12.7087 63.4614 13.2926C63.4759 13.8836 63.2368 14.4603 62.7948 14.8661C62.3601 15.2791 61.7732 15.507 61.1646 15.4927C60.5632 15.507 59.9763 15.2791 59.5343 14.8661ZM59.0706 17.5006H63.2658V30.5235H59.0706V17.5006Z" fill="#1A1818"/>
<path d="M70.7868 36.5194C70.0116 36.3912 69.258 36.1705 68.5334 35.8643V32.8525C70.0913 33.4933 71.765 33.8066 73.446 33.771C74.5908 33.8778 75.7357 33.5574 76.6486 32.8738C77.337 32.1547 77.692 31.1792 77.6123 30.1895V29.3778C77.0037 29.9047 76.2863 30.2963 75.5111 30.5313C74.6561 30.7947 73.7576 30.93 72.8591 30.9229C71.5839 30.9443 70.3231 30.6381 69.2 30.04C68.1422 29.4704 67.2654 28.6159 66.6713 27.5835C66.0554 26.487 65.7366 25.2552 65.7583 24.002C65.7293 22.7346 66.0409 21.4815 66.6568 20.3636C67.2292 19.3383 68.0914 18.491 69.1421 17.9356C70.2579 17.3517 71.5114 17.0598 72.7722 17.0812C73.6996 17.0669 74.6271 17.2093 75.5038 17.5155C76.3371 17.8288 77.0906 18.2987 77.7427 18.8968V17.487H81.7786V29.684C81.9018 31.6349 81.1555 33.5503 79.7353 34.9174C77.9456 36.2844 75.6994 36.9395 73.446 36.7615C72.5693 36.7615 71.6708 36.6832 70.7868 36.5194ZM76.1994 27.0637C76.8733 26.6294 77.3732 25.9815 77.6196 25.2338V22.7916C77.3442 22.0511 76.837 21.4174 76.1704 20.9759C75.4893 20.5202 74.685 20.2853 73.8663 20.2995C72.8519 20.2568 71.8592 20.6199 71.1202 21.3035C70.3956 22.0084 70.0116 22.9838 70.055 23.9878C70.0043 25.006 70.3883 26.0028 71.1202 26.7291C71.852 27.4269 72.8446 27.7971 73.8663 27.7615C74.6995 27.7686 75.5111 27.5266 76.1994 27.0637Z" fill="#1A1818"/>
<path d="M85.3579 14.8661C84.9159 14.4603 84.6768 13.8836 84.6913 13.2926C84.6768 12.7016 84.9232 12.1391 85.3579 11.7332C85.7927 11.3132 86.3796 11.0853 86.9882 11.0924C87.5968 11.0782 88.1837 11.306 88.6185 11.7332C89.0532 12.1391 89.2923 12.7087 89.2851 13.2926C89.2996 13.8836 89.0605 14.4603 88.6185 14.8661C88.1837 15.2791 87.5968 15.507 86.9882 15.4927C86.3796 15.507 85.7927 15.2791 85.3579 14.8661ZM84.8869 17.5006H89.0822V30.5235H84.8869V17.5006Z" fill="#1A1818"/>
<path d="M94.176 29.6693C93.3282 28.6938 92.8935 27.4335 92.9732 26.1519V20.4557H91.0386V17.5008H92.9732V13.5918H97.1395V17.5008H100.262V20.4557H97.1395V25.6107C97.0888 26.1946 97.2409 26.7713 97.5815 27.2555C98.009 27.64 98.5814 27.818 99.1538 27.7539C99.7624 27.7539 100.357 27.6044 100.893 27.3196V30.3884C99.8711 30.78 98.7842 30.9652 97.6901 30.9296C96.3932 31.0221 95.1179 30.5593 94.176 29.6693Z" fill="#1A1818"/>
<path d="M103.501 14.8661C103.059 14.4603 102.82 13.8836 102.835 13.2926C102.82 12.7016 103.066 12.1391 103.501 11.7332C103.936 11.3132 104.523 11.0853 105.131 11.0924C105.74 11.0782 106.327 11.306 106.762 11.7332C107.197 12.1391 107.436 12.7087 107.428 13.2926C107.443 13.8836 107.204 14.4603 106.762 14.8661C106.327 15.2791 105.74 15.507 105.131 15.4927C104.523 15.507 103.936 15.2791 103.501 14.8661ZM103.03 17.5006H107.225V30.5235H103.03V17.5006Z" fill="#1A1818"/>
<path d="M111.863 29.1278C110.406 27.839 109.624 25.9664 109.74 24.0368C109.631 22.1001 110.414 20.2204 111.877 18.9173C113.493 17.6357 115.529 16.9806 117.609 17.0874C119.42 17.002 121.217 17.415 122.804 18.2836V21.5091C122.181 21.0819 121.485 20.7686 120.746 20.5906C119.942 20.3912 119.108 20.2916 118.275 20.2916C117.167 20.2346 116.073 20.5621 115.181 21.2101C114.363 21.9221 113.935 22.9688 114.022 24.0368C113.935 25.0977 114.363 26.1373 115.167 26.8422C116.058 27.4901 117.145 27.8105 118.246 27.7536C119.913 27.7892 121.55 27.3406 122.97 26.479V29.6831C121.326 30.5874 119.456 31.0146 117.58 30.9292C115.507 31.036 113.479 30.3952 111.863 29.1278Z" fill="#1A1818"/>
<path d="M125.282 10.4727H129.448V23.0114L134.281 17.5003H139.114L133.506 23.8587L139.795 30.5375H134.962L129.441 24.6775V30.5375H125.275L125.282 10.4727Z" fill="#1A1818"/>
<path d="M143.758 29.1276C142.273 27.8602 141.469 25.9947 141.578 24.0651C141.476 22.1712 142.179 20.3199 143.527 18.9599C145.055 17.6285 147.063 16.952 149.099 17.0873C150.497 17.0446 151.881 17.3436 153.127 17.956C154.192 18.49 155.069 19.3302 155.641 20.3555C156.221 21.4164 156.518 22.6126 156.496 23.8159V25.4821H145.541C145.838 27.1482 147.418 27.9813 150.294 27.9741C151.171 27.9741 152.048 27.8958 152.917 27.7534C153.721 27.6324 154.504 27.433 155.265 27.1553V30.039C154.468 30.3523 153.634 30.573 152.779 30.6941C151.772 30.8578 150.758 30.9362 149.743 30.9362C147.591 31.0572 145.468 30.4164 143.758 29.1276ZM152.54 22.8191C152.526 22.0359 152.164 21.2954 151.548 20.797C150.816 20.2772 149.932 20.028 149.033 20.0778C148.142 20.028 147.265 20.2914 146.548 20.8112C145.939 21.3096 145.577 22.043 145.555 22.8191H152.54Z" fill="#1A1818"/>
<path d="M160.837 29.6693C159.989 28.6938 159.554 27.4335 159.634 26.1519V20.4557H157.699V17.5008H159.634V13.5918H163.8V17.5008H166.923V20.4557H163.8V25.6107C163.75 26.1946 163.902 26.7713 164.242 27.2555C164.67 27.64 165.242 27.818 165.815 27.7539C166.423 27.7539 167.017 27.6044 167.554 27.3196V30.3884C166.532 30.78 165.445 30.9652 164.351 30.9296C163.054 31.0221 161.771 30.5593 160.837 29.6693Z" fill="#1A1818"/>
<path d="M169.394 30.089C169.089 29.8042 168.93 29.4125 168.937 28.9996C168.93 28.5795 169.104 28.1807 169.408 27.8888C169.698 27.5898 170.097 27.426 170.517 27.426C170.944 27.4189 171.35 27.5898 171.647 27.8888C171.951 28.1807 172.125 28.5795 172.118 28.9996C172.125 29.4125 171.959 29.8042 171.647 30.089C171.343 30.3738 170.937 30.5304 170.517 30.5233C170.097 30.5375 169.691 30.3809 169.394 30.089Z" fill="#1A1818"/>
<path d="M174.096 17.5H177.603L181.197 26.5071L184.791 17.5H188.298L182.827 30.5229H179.567L174.096 17.5Z" fill="#1A1818"/>
<path d="M190.479 17.4994H194.507V19.1015C195.102 18.4393 195.841 17.9267 196.674 17.592C197.514 17.2574 198.406 17.0865 199.311 17.0936C200.804 16.9797 202.275 17.4994 203.354 18.5176C204.289 19.5785 204.767 20.9528 204.695 22.3554V30.5223H200.529V22.8183C200.529 21.1379 199.739 20.2977 198.152 20.2977C197.464 20.2977 196.79 20.4686 196.188 20.7961C195.558 21.1521 195.022 21.6648 194.645 22.2771V30.5295H190.479V17.4994Z" fill="#1A1818"/>
<path d="M30.1785 0.738281V16.2461V28.6923C30.1785 28.7208 30.1785 28.7493 30.1785 28.7778C30.1132 29.6891 29.9394 30.5863 29.664 31.455L29.4829 31.9249L29.4684 31.9747C29.1496 32.7437 28.7148 33.47 28.1931 34.125C28.1497 34.182 28.0989 34.239 28.0555 34.303C25.3746 37.5428 21.4691 39.5791 17.2376 39.9565C17.0855 39.9565 16.926 39.9565 16.7739 39.9565H16.5565C17.0492 39.8782 17.5347 39.7429 17.9912 39.5435L18.0781 39.5079C19.0346 39.0807 19.8388 38.3829 20.3823 37.5C20.5924 37.1583 20.759 36.7951 20.8822 36.4106V36.4035C20.8822 36.3964 20.8822 36.3893 20.8822 36.3893C20.9402 36.2255 20.9764 36.0617 21.0126 35.898C21.0126 35.8837 21.0126 35.8695 21.0126 35.8553V35.8481C21.0344 35.7129 21.0489 35.5847 21.0634 35.4494C21.0778 35.186 21.0778 34.3885 21.0778 34.3885V34.3173V19.5855V9.85218V1.31502V0.738281H23.6935C23.7008 1.78496 24.5703 2.63226 25.6354 2.63226C26.7005 2.63938 27.5773 1.79208 27.5845 0.738281H30.1785Z" fill="#1A1818"/>
<path d="M17.8969 13.6891C17.8969 14.7429 18.7664 15.5973 19.8388 15.5973H19.8605V18.8513C19.0707 18.3884 18.194 18.0894 17.281 17.9541C16.9332 17.9043 16.5854 17.8829 16.2376 17.8829C16.1362 17.8829 15.9261 17.8829 15.9188 17.8829C15.7087 17.8829 15.4986 17.9114 15.2957 17.9328C13.4915 18.1677 11.8467 19.072 10.6947 20.4604C10.6512 20.5103 10.6077 20.5672 10.5642 20.6171C10.4845 20.7239 10.3976 20.8307 10.3251 20.9446C10.2889 21.0016 10.2454 21.0585 10.2092 21.1226C10.173 21.1867 10.1368 21.2365 10.1005 21.3006C10.0643 21.3647 10.0281 21.4145 9.99908 21.4786C9.96286 21.5356 9.92663 21.5997 9.89764 21.6566C9.86866 21.7065 9.84692 21.7492 9.82519 21.799C9.80345 21.8489 9.78171 21.8916 9.75998 21.9414C9.73824 21.9913 9.72375 22.0126 9.70926 22.0482L9.67303 22.1337C9.64404 22.1978 9.61506 22.269 9.58608 22.3331C9.5571 22.4043 9.54985 22.4256 9.53536 22.4755C9.52087 22.5253 9.49913 22.5823 9.47739 22.6392C9.45566 22.6891 9.44116 22.746 9.42667 22.803C9.41218 22.86 9.40494 22.8884 9.39044 22.924C9.39044 22.9312 9.39044 22.9383 9.39044 22.9454C9.37595 22.9881 9.36871 23.0237 9.35422 23.0664C9.34697 23.1092 9.33972 23.1305 9.33248 23.159C9.32523 23.1732 9.32523 23.1804 9.32523 23.1946C9.32523 23.2231 9.31074 23.2444 9.3035 23.2729C9.29625 23.2943 9.28176 23.3655 9.27451 23.4153C9.26727 23.4581 9.26002 23.4937 9.25278 23.5364C9.24553 23.572 9.23829 23.6076 9.23104 23.6432C9.23104 23.6788 9.21655 23.7144 9.2093 23.75C9.20206 23.7856 9.19481 23.8425 9.18756 23.8924C9.18032 23.9422 9.18032 23.9565 9.17307 23.9921C9.17307 24.0277 9.16583 24.0704 9.15858 24.106C9.15134 24.1416 9.15858 24.1843 9.14409 24.227L9.13684 24.3338C9.13684 24.3338 9.13684 24.341 9.13684 24.3481C9.13684 24.3837 9.13684 24.4264 9.13684 24.462C9.13684 24.462 9.13684 24.4691 9.13684 24.4762C9.13684 24.519 9.13684 24.5688 9.13684 24.6115C9.13684 24.6186 9.13684 24.6258 9.13684 24.6329C9.13684 24.7183 9.13684 24.8109 9.13684 24.8821C9.13684 28.7555 12.3322 31.8955 16.2739 31.8955C17.1071 31.8955 17.9259 31.7531 18.7084 31.4754C18.8099 31.4398 18.9113 31.4042 19.0055 31.3615C19.3026 31.2405 19.5852 31.0981 19.8677 30.9414V34.7935C19.8677 34.8575 19.8677 34.9216 19.8677 34.9857C19.8677 35.8188 19.6576 36.6376 19.2519 37.371C19.2229 37.4279 19.1866 37.492 19.1504 37.549C18.8026 38.1257 18.3389 38.6241 17.7955 39.0229L17.6288 39.1368C17.1723 39.443 16.6724 39.6708 16.1434 39.8132C15.7739 39.9129 15.3899 39.977 14.9986 39.9912C8.94846 39.6779 3.60837 35.9968 1.25351 30.5142C1.21728 30.4288 1.18105 30.3433 1.14482 30.2579C1.10859 30.1724 1.07237 30.0799 1.03614 29.9944C0.992663 29.8734 0.949188 29.7595 0.905714 29.6384L0.86224 29.5102C0.840503 29.4533 0.826011 29.3963 0.804274 29.3322C0.789783 29.2682 0.768046 29.2183 0.746309 29.1542L0.695589 28.9762C0.231863 27.5166 0 25.9857 0 24.4478C0 15.8608 7.07906 8.9043 15.8174 8.9043C17.1868 8.9043 18.549 9.07518 19.875 9.41695V11.7453H19.8533C18.7809 11.7381 17.9042 12.5855 17.8969 13.6393C17.8969 13.6606 17.8969 13.6749 17.8969 13.6891Z" fill="#1A1818"/>
</svg>
