<svg width="28" height="37" viewBox="0 0 28 37" fill="none" xmlns="http://www.w3.org/2000/svg">
<path d="M27.1611 0.25V14.4724V25.8869C27.1611 25.913 27.1611 25.9391 27.1611 25.9652C27.1024 26.8011 26.9459 27.6238 26.6981 28.4205L26.5351 28.8515L26.522 28.8972C26.2351 29.6024 25.8438 30.2685 25.3743 30.8693C25.3352 30.9215 25.2895 30.9737 25.2504 31.0325C22.8376 34.0037 19.3227 35.8712 15.5144 36.2173C15.3774 36.2173 15.2339 36.2173 15.097 36.2173H14.9014C15.3448 36.1455 15.7817 36.0214 16.1926 35.8386L16.2708 35.806C17.1316 35.4141 17.8554 34.7742 18.3445 33.9645C18.5336 33.651 18.6836 33.318 18.7945 32.9654V32.9589C18.7945 32.9523 18.7945 32.9458 18.7945 32.9458C18.8467 32.7956 18.8793 32.6454 18.9119 32.4952C18.9119 32.4822 18.9119 32.4691 18.9119 32.4561V32.4495C18.9314 32.3255 18.9445 32.2079 18.9575 32.0838C18.9706 31.8422 18.9706 31.1109 18.9706 31.1109V31.0456V17.535V8.60842V0.778931V0.25H21.3247C21.3312 1.20991 22.1137 1.98698 23.0724 1.98698C24.031 1.99351 24.82 1.21644 24.8265 0.25H27.1611Z" fill="#FFBE0F"/>
<path d="M16.1072 12.1265C16.1072 13.0929 16.8898 13.8765 17.8549 13.8765H17.8744V16.8607C17.1636 16.4363 16.3746 16.162 15.5529 16.0379C15.2399 15.9922 14.9269 15.9726 14.6139 15.9726C14.5226 15.9726 14.3335 15.9726 14.3269 15.9726C14.1378 15.9726 13.9487 15.9988 13.7661 16.0183C12.1424 16.2338 10.6621 17.0631 9.6252 18.3365C9.58608 18.3822 9.54695 18.4345 9.50782 18.4802C9.43609 18.5781 9.35784 18.6761 9.29263 18.7805C9.26002 18.8328 9.22089 18.885 9.18829 18.9438C9.15568 19.0026 9.12308 19.0483 9.09047 19.107C9.05786 19.1658 9.02526 19.2115 8.99917 19.2703C8.96657 19.3225 8.93396 19.3813 8.90788 19.4335C8.88179 19.4793 8.86223 19.5184 8.84267 19.5641C8.8231 19.6099 8.80354 19.649 8.78398 19.6947C8.76441 19.7405 8.75137 19.76 8.73833 19.7927L8.70572 19.8711C8.67964 19.9298 8.65355 19.9951 8.62747 20.0539C8.60139 20.1192 8.59486 20.1388 8.58182 20.1845C8.56878 20.2302 8.54922 20.2824 8.52965 20.3347C8.51009 20.3804 8.49705 20.4326 8.484 20.4849C8.47096 20.5371 8.46444 20.5632 8.4514 20.5959C8.4514 20.6024 8.4514 20.6089 8.4514 20.6155C8.43836 20.6547 8.43184 20.6873 8.41879 20.7265C8.41227 20.7657 8.40575 20.7853 8.39923 20.8114C8.39271 20.8244 8.39271 20.831 8.39271 20.844C8.39271 20.8701 8.37967 20.8897 8.37314 20.9159C8.36662 20.9354 8.35358 21.0007 8.34706 21.0465C8.34054 21.0856 8.33402 21.1183 8.3275 21.1575C8.32098 21.1901 8.31446 21.2228 8.30793 21.2554C8.30793 21.2881 8.29489 21.3207 8.28837 21.3534C8.28185 21.386 8.27533 21.4383 8.26881 21.484C8.26229 21.5297 8.26229 21.5427 8.25576 21.5754C8.25576 21.608 8.24924 21.6472 8.24272 21.6799C8.2362 21.7125 8.24272 21.7517 8.22968 21.7909L8.22316 21.8888C8.22316 21.8888 8.22316 21.8954 8.22316 21.9019C8.22316 21.9345 8.22316 21.9737 8.22316 22.0064C8.22316 22.0064 8.22316 22.0129 8.22316 22.0194C8.22316 22.0586 8.22316 22.1043 8.22316 22.1435C8.22316 22.15 8.22316 22.1566 8.22316 22.1631C8.22316 22.2415 8.22316 22.3263 8.22316 22.3916C8.22316 25.944 11.099 28.8237 14.6465 28.8237C15.3964 28.8237 16.1333 28.6931 16.8376 28.4384C16.9289 28.4058 17.0202 28.3731 17.105 28.334C17.3723 28.223 17.6266 28.0924 17.881 27.9487V31.4814C17.881 31.5402 17.881 31.599 17.881 31.6577C17.881 32.4218 17.6919 33.1727 17.3267 33.8453C17.3006 33.8975 17.268 33.9563 17.2354 34.0085C16.9224 34.5375 16.505 34.9946 16.0159 35.3603L15.8659 35.4647C15.4551 35.7455 15.0051 35.9545 14.5291 36.0851C14.1965 36.1765 13.8509 36.2353 13.4988 36.2483C8.05361 35.961 3.24753 32.585 1.12816 27.5569C1.09555 27.4785 1.06295 27.4002 1.03034 27.3218C0.997735 27.2435 0.965129 27.1586 0.932523 27.0802C0.893396 26.9692 0.854269 26.8647 0.815143 26.7537L0.776016 26.6362C0.756452 26.5839 0.74341 26.5317 0.723847 26.4729C0.710804 26.4141 0.691241 26.3684 0.671678 26.3097L0.62603 26.1464C0.208677 24.8078 0 23.4038 0 21.9933C0 14.1181 6.37115 7.73828 14.2357 7.73828C15.4681 7.73828 16.6941 7.895 17.8875 8.20844V10.3438H17.8679C16.9028 10.3372 16.1137 11.1143 16.1072 12.0807C16.1072 12.1003 16.1072 12.1134 16.1072 12.1265Z" fill="#FFBE0F"/>
</svg>
