<svg width="247" height="51" viewBox="0 0 247 51" fill="none" xmlns="http://www.w3.org/2000/svg">
<path d="M0 0.984375H247L225.539 42.9844H0V0.984375Z" fill="#E8081F"/>
<path d="M0 42.9844H15V50.9844L0 42.9844Z" fill="#8D1320"/>
<g clip-path="url(#clip0_4168_109459)">
<path d="M53.5594 14.7431C53.4299 14.9464 53.2678 15.2203 53.0929 15.5609C53.0074 15.7274 52.7725 15.7346 52.6774 15.5734C51.6109 13.7664 50.3341 12.4844 48.9617 12.4844C46.7752 12.4844 44.8311 15.7378 43.5944 19.1855C43.4267 19.653 42.7578 19.6503 42.604 19.1781C42.6016 19.1709 42.5993 19.1637 42.5971 19.1564C42.5314 18.9497 42.2337 18.9597 42.1773 19.1692C41.6661 21.0671 40.7884 25.7318 43.2288 29.3094C44.4252 31.2159 46.5448 32.4844 48.9617 32.4844C50.8877 32.4844 52.6243 31.6782 53.8563 30.3864C54.4128 29.7159 56.4048 27.8333 56.4048 23.7417C56.4048 18.4584 54.0553 17.0292 53.8622 14.8156C53.8485 14.659 53.6438 14.6105 53.5594 14.7431Z" fill="url(#paint0_radial_4168_109459)"/>
<path d="M49 32.0196C52.6082 32.0196 55.5332 29.0945 55.5332 25.4863C55.5332 21.8781 52.6082 18.9531 49 18.9531C45.3918 18.9531 42.4668 21.8781 42.4668 25.4863C42.4668 29.0945 45.3918 32.0196 49 32.0196Z" fill="url(#paint1_linear_4168_109459)"/>
<path d="M52.3575 19.8809C52.9465 20.8621 53.2855 22.0106 53.2855 23.2384C53.2855 26.8466 50.3605 29.7716 46.7523 29.7716C45.5245 29.7716 44.376 29.4327 43.3948 28.8436C44.5368 30.746 46.6196 32.0193 49 32.0193C52.6082 32.0193 55.5332 29.0943 55.5332 25.4861C55.5332 23.1057 54.26 21.0229 52.3575 19.8809Z" fill="url(#paint2_linear_4168_109459)"/>
<path d="M49 31.5077C52.3255 31.5077 55.0214 28.8119 55.0214 25.4863C55.0214 22.1607 52.3255 19.4648 49 19.4648C45.6744 19.4648 42.9785 22.1607 42.9785 25.4863C42.9785 28.8119 45.6744 31.5077 49 31.5077Z" fill="url(#paint3_linear_4168_109459)"/>
<path d="M45.157 24.564V23.126C45.157 22.1234 45.8152 21.7589 46.676 21.7589C47.5266 21.7589 48.1949 22.1235 48.1949 23.126V24.564C48.1949 25.5665 47.5266 25.9311 46.676 25.9311C45.8152 25.931 45.157 25.5665 45.157 24.564ZM47.1823 23.126C47.1823 22.7918 46.9899 22.6399 46.676 22.6399C46.362 22.6399 46.1797 22.7918 46.1797 23.126V24.564C46.1797 24.8981 46.362 25.0501 46.676 25.0501C46.9899 25.0501 47.1823 24.8981 47.1823 24.564V23.126ZM51.3342 21.8804C51.3342 21.9412 51.324 22.0121 51.2937 22.0728L47.7291 29.3741C47.6582 29.5261 47.4658 29.6273 47.2734 29.6273C46.9291 29.6273 46.7064 29.3438 46.7064 29.0906C46.7064 29.0299 46.7266 28.959 46.757 28.8982L50.3115 21.5969C50.3924 21.4248 50.5545 21.3438 50.7368 21.3438C51.0203 21.3437 51.3342 21.5563 51.3342 21.8804ZM49.8051 27.8247V26.3868C49.8051 25.3842 50.4633 25.0197 51.324 25.0197C52.1747 25.0197 52.8431 25.3842 52.8431 26.3868V27.8247C52.8431 28.8273 52.1747 29.1918 51.324 29.1918C50.4633 29.1918 49.8051 28.8273 49.8051 27.8247ZM51.8304 26.3868C51.8304 26.0526 51.638 25.9007 51.3241 25.9007C51.0102 25.9007 50.8279 26.0526 50.8279 26.3868V27.8247C50.8279 28.1589 51.0102 28.3108 51.3241 28.3108C51.638 28.3108 51.8304 28.1589 51.8304 27.8247V26.3868Z" fill="white"/>
<path d="M54.0285 26.4226C54.0285 29.1972 51.7793 31.4464 49.0047 31.4464C46.2301 31.4464 43.9808 29.1972 43.9808 26.4226C43.9808 23.648 46.2301 16.5938 49.0047 16.5938C51.7793 16.5938 54.0285 23.648 54.0285 26.4226Z" fill="url(#paint4_linear_4168_109459)"/>
<path d="M52.6538 27.7975C52.6538 29.8128 51.0201 31.4466 49.0047 31.4466C46.9894 31.4466 45.3556 29.8128 45.3556 27.7975C45.3556 25.7821 46.9894 20.6582 49.0047 20.6582C51.0201 20.6582 52.6538 25.7821 52.6538 27.7975Z" fill="url(#paint5_linear_4168_109459)"/>
</g>
<path d="M73.4531 31.9844H69.0234L69.5977 28.7852L73.5762 28.8125C74.8158 28.8125 75.8594 28.5208 76.707 27.9375C77.5547 27.3451 78.2201 26.5703 78.7031 25.6133C79.1953 24.6471 79.528 23.6035 79.7012 22.4824L79.8242 21.5117C79.9062 20.819 79.9336 20.1172 79.9062 19.4062C79.8789 18.6862 79.7467 18.0208 79.5098 17.4102C79.2819 16.7995 78.9173 16.3027 78.416 15.9199C77.9147 15.5371 77.2357 15.332 76.3789 15.3047L71.8398 15.291L72.4004 12.0781L76.502 12.0918C77.8327 12.1191 78.9902 12.3926 79.9746 12.9121C80.959 13.4225 81.7656 14.1152 82.3945 14.9902C83.0234 15.8652 83.4609 16.8678 83.707 17.998C83.9531 19.1191 84.0033 20.2995 83.8574 21.5391L83.748 22.5098C83.5658 23.8405 83.1875 25.0846 82.6133 26.2422C82.0482 27.3997 81.3145 28.4115 80.4121 29.2773C79.5189 30.1341 78.4844 30.804 77.3086 31.2871C76.1328 31.7611 74.8477 31.9935 73.4531 31.9844ZM74.752 12.0781L71.293 31.9844H67.2871L70.7324 12.0781H74.752ZM92.6621 12.0781L89.2168 31.9844H85.2109L88.6699 12.0781H92.6621ZM110.039 21.5801L108.795 29.4824C108.202 30.2025 107.464 30.7676 106.58 31.1777C105.705 31.5788 104.78 31.8613 103.805 32.0254C102.829 32.1895 101.9 32.2624 101.016 32.2441C99.6576 32.2259 98.5 31.9525 97.543 31.4238C96.5951 30.8861 95.8385 30.166 95.2734 29.2637C94.7174 28.3613 94.3438 27.3451 94.1523 26.2148C93.9609 25.0755 93.9427 23.8906 94.0977 22.6602L94.2754 21.416C94.4486 20.14 94.7812 18.9232 95.2734 17.7656C95.7656 16.599 96.4082 15.5645 97.2012 14.6621C97.9941 13.7507 98.9421 13.0397 100.045 12.5293C101.148 12.0098 102.401 11.7637 103.805 11.791C105.208 11.8184 106.402 12.0918 107.387 12.6113C108.371 13.1309 109.137 13.8783 109.684 14.8535C110.24 15.8197 110.563 16.9954 110.654 18.3809L106.799 18.3672C106.753 17.7109 106.621 17.1322 106.402 16.6309C106.184 16.1296 105.855 15.7376 105.418 15.4551C104.98 15.1725 104.406 15.0176 103.695 14.9902C102.82 14.9538 102.068 15.127 101.439 15.5098C100.811 15.8926 100.282 16.4076 99.8535 17.0547C99.4342 17.6927 99.1016 18.3945 98.8555 19.1602C98.6094 19.9167 98.4362 20.6595 98.3359 21.3887L98.1582 22.6738C98.0762 23.3392 98.0352 24.041 98.0352 24.7793C98.0443 25.5085 98.1491 26.1966 98.3496 26.8438C98.5592 27.4818 98.9056 28.0059 99.3887 28.416C99.8717 28.8171 100.546 29.0267 101.412 29.0449C101.831 29.054 102.242 29.0267 102.643 28.9629C103.044 28.8991 103.431 28.7943 103.805 28.6484C104.178 28.4935 104.529 28.293 104.857 28.0469L105.541 24.5059H101.904L102.41 21.5801H110.039ZM119.131 12.0781L115.686 31.9844H111.68L115.139 12.0781H119.131ZM137.246 26.6797C137.328 26.1966 137.287 25.791 137.123 25.4629C136.968 25.1257 136.731 24.8431 136.412 24.6152C136.102 24.3783 135.751 24.1777 135.359 24.0137C134.977 23.8496 134.594 23.6992 134.211 23.5625C133.509 23.2891 132.816 22.9792 132.133 22.6328C131.458 22.2865 130.843 21.8763 130.287 21.4023C129.731 20.9193 129.298 20.3587 128.988 19.7207C128.678 19.0736 128.551 18.3171 128.605 17.4512C128.669 16.4668 128.947 15.6146 129.439 14.8945C129.932 14.1745 130.556 13.5866 131.312 13.1309C132.078 12.666 132.908 12.3242 133.801 12.1055C134.703 11.8867 135.587 11.7865 136.453 11.8047C137.693 11.8229 138.796 12.0827 139.762 12.584C140.728 13.0762 141.484 13.778 142.031 14.6895C142.587 15.5918 142.847 16.6764 142.811 17.9434H138.846C138.882 17.3418 138.805 16.8223 138.613 16.3848C138.431 15.9382 138.135 15.5964 137.725 15.3594C137.324 15.1133 136.809 14.9811 136.18 14.9629C135.642 14.9538 135.113 15.0404 134.594 15.2227C134.083 15.3958 133.641 15.6693 133.268 16.043C132.903 16.4076 132.675 16.8815 132.584 17.4648C132.511 17.8932 132.57 18.2624 132.762 18.5723C132.962 18.8822 133.231 19.1465 133.568 19.3652C133.915 19.584 134.279 19.7708 134.662 19.9258C135.054 20.0716 135.405 20.2038 135.715 20.3223C136.453 20.5866 137.164 20.901 137.848 21.2656C138.54 21.6302 139.151 22.0632 139.68 22.5645C140.208 23.0566 140.614 23.64 140.896 24.3145C141.179 24.9798 141.293 25.7546 141.238 26.6387C141.156 27.6504 140.883 28.5163 140.418 29.2363C139.953 29.9473 139.352 30.5306 138.613 30.9863C137.875 31.4329 137.068 31.7611 136.193 31.9707C135.318 32.1803 134.43 32.2806 133.527 32.2715C132.543 32.2533 131.618 32.0983 130.752 31.8066C129.886 31.515 129.13 31.0957 128.482 30.5488C127.835 29.9928 127.334 29.3138 126.979 28.5117C126.632 27.7005 126.473 26.7754 126.5 25.7363L130.506 25.75C130.469 26.306 130.51 26.7936 130.629 27.2129C130.757 27.623 130.957 27.9694 131.23 28.252C131.513 28.5345 131.859 28.7487 132.27 28.8945C132.689 29.0312 133.176 29.1042 133.732 29.1133C134.27 29.1133 134.79 29.0312 135.291 28.8672C135.792 28.7031 136.221 28.4434 136.576 28.0879C136.932 27.7233 137.155 27.2539 137.246 26.6797ZM153.707 15.6875L145.695 31.9844H141.293L151.93 12.0781H154.746L153.707 15.6875ZM155.293 31.9844L152.859 15.2637L153.01 12.0781H155.648L159.408 31.9844H155.293ZM156.305 24.5742L155.744 27.7871H145.504L146.064 24.5742H156.305ZM174.27 28.7852L173.709 31.9844H163.961L164.521 28.7852H174.27ZM168.732 12.0781L165.273 31.9844H161.268L164.713 12.0781H168.732ZM189.527 28.7852L188.967 31.9844H178.672L179.219 28.7852H189.527ZM183.443 12.0781L179.984 31.9844H175.979L179.424 12.0781H183.443ZM189.678 20.1855L189.131 23.3027H180.176L180.723 20.1855H189.678ZM192.398 12.0781L191.838 15.291H181.557L182.131 12.0781H192.398Z" fill="white"/>
<g clip-path="url(#clip1_4168_109459)">
<path d="M213.559 14.7431C213.43 14.9464 213.268 15.2203 213.093 15.5609C213.007 15.7274 212.772 15.7346 212.677 15.5734C211.611 13.7664 210.334 12.4844 208.962 12.4844C206.775 12.4844 204.831 15.7378 203.594 19.1855C203.427 19.653 202.758 19.6503 202.604 19.1781C202.602 19.1709 202.599 19.1637 202.597 19.1564C202.531 18.9497 202.234 18.9597 202.177 19.1692C201.666 21.0671 200.788 25.7318 203.229 29.3094C204.425 31.2159 206.545 32.4844 208.962 32.4844C210.888 32.4844 212.624 31.6782 213.856 30.3864C214.413 29.7159 216.405 27.8333 216.405 23.7417C216.405 18.4584 214.055 17.0292 213.862 14.8156C213.848 14.659 213.644 14.6105 213.559 14.7431Z" fill="url(#paint6_radial_4168_109459)"/>
<path d="M209 32.0196C212.608 32.0196 215.533 29.0945 215.533 25.4863C215.533 21.8781 212.608 18.9531 209 18.9531C205.392 18.9531 202.467 21.8781 202.467 25.4863C202.467 29.0945 205.392 32.0196 209 32.0196Z" fill="url(#paint7_linear_4168_109459)"/>
<path d="M212.358 19.8809C212.947 20.8621 213.286 22.0106 213.286 23.2384C213.286 26.8466 210.361 29.7716 206.752 29.7716C205.525 29.7716 204.376 29.4327 203.395 28.8436C204.537 30.746 206.62 32.0193 209 32.0193C212.608 32.0193 215.533 29.0943 215.533 25.4861C215.533 23.1057 214.26 21.0229 212.358 19.8809Z" fill="url(#paint8_linear_4168_109459)"/>
<path d="M209 31.5077C212.326 31.5077 215.021 28.8119 215.021 25.4863C215.021 22.1607 212.326 19.4648 209 19.4648C205.674 19.4648 202.979 22.1607 202.979 25.4863C202.979 28.8119 205.674 31.5077 209 31.5077Z" fill="url(#paint9_linear_4168_109459)"/>
<path d="M205.157 24.564V23.126C205.157 22.1234 205.815 21.7589 206.676 21.7589C207.527 21.7589 208.195 22.1235 208.195 23.126V24.564C208.195 25.5665 207.527 25.9311 206.676 25.9311C205.815 25.931 205.157 25.5665 205.157 24.564ZM207.182 23.126C207.182 22.7918 206.99 22.6399 206.676 22.6399C206.362 22.6399 206.18 22.7918 206.18 23.126V24.564C206.18 24.8981 206.362 25.0501 206.676 25.0501C206.99 25.0501 207.182 24.8981 207.182 24.564V23.126ZM211.334 21.8804C211.334 21.9412 211.324 22.0121 211.294 22.0728L207.729 29.3741C207.658 29.5261 207.466 29.6273 207.273 29.6273C206.929 29.6273 206.706 29.3438 206.706 29.0906C206.706 29.0299 206.727 28.959 206.757 28.8982L210.311 21.5969C210.392 21.4248 210.554 21.3438 210.737 21.3438C211.02 21.3437 211.334 21.5563 211.334 21.8804ZM209.805 27.8247V26.3868C209.805 25.3842 210.463 25.0197 211.324 25.0197C212.175 25.0197 212.843 25.3842 212.843 26.3868V27.8247C212.843 28.8273 212.175 29.1918 211.324 29.1918C210.463 29.1918 209.805 28.8273 209.805 27.8247ZM211.83 26.3868C211.83 26.0526 211.638 25.9007 211.324 25.9007C211.01 25.9007 210.828 26.0526 210.828 26.3868V27.8247C210.828 28.1589 211.01 28.3108 211.324 28.3108C211.638 28.3108 211.83 28.1589 211.83 27.8247V26.3868Z" fill="white"/>
<path d="M214.029 26.4226C214.029 29.1972 211.779 31.4464 209.005 31.4464C206.23 31.4464 203.981 29.1972 203.981 26.4226C203.981 23.648 206.23 16.5938 209.005 16.5938C211.779 16.5938 214.029 23.648 214.029 26.4226Z" fill="url(#paint10_linear_4168_109459)"/>
<path d="M212.654 27.7975C212.654 29.8128 211.02 31.4466 209.005 31.4466C206.989 31.4466 205.356 29.8128 205.356 27.7975C205.356 25.7821 206.989 20.6582 209.005 20.6582C211.02 20.6582 212.654 25.7821 212.654 27.7975Z" fill="url(#paint11_linear_4168_109459)"/>
</g>
<defs>
<radialGradient id="paint0_radial_4168_109459" cx="0" cy="0" r="1" gradientUnits="userSpaceOnUse" gradientTransform="translate(45.7854 20.1039) scale(11.219 11.2191)">
<stop stop-color="#FFD945"/>
<stop offset="0.4169" stop-color="#FFD744"/>
<stop offset="0.6278" stop-color="#FFCF3F"/>
<stop offset="0.7926" stop-color="#FFC237"/>
<stop offset="0.9326" stop-color="#FFAF2C"/>
<stop offset="1" stop-color="#FFA325"/>
</radialGradient>
<linearGradient id="paint1_linear_4168_109459" x1="46.5127" y1="22.999" x2="51.7799" y2="28.2663" gradientUnits="userSpaceOnUse">
<stop stop-color="#FF7044"/>
<stop offset="1" stop-color="#F82814"/>
</linearGradient>
<linearGradient id="paint2_linear_4168_109459" x1="50.1189" y1="26.2528" x2="61.6481" y2="22.8709" gradientUnits="userSpaceOnUse">
<stop stop-color="#F82814" stop-opacity="0"/>
<stop offset="1" stop-color="#C0272D"/>
</linearGradient>
<linearGradient id="paint3_linear_4168_109459" x1="50.2378" y1="27.5331" x2="42.3979" y2="14.5692" gradientUnits="userSpaceOnUse">
<stop stop-color="#FF7044" stop-opacity="0"/>
<stop offset="1" stop-color="#FFA325"/>
</linearGradient>
<linearGradient id="paint4_linear_4168_109459" x1="50.08" y1="26.5573" x2="43.7115" y2="17.5163" gradientUnits="userSpaceOnUse">
<stop stop-color="#FFD945" stop-opacity="0"/>
<stop offset="1" stop-color="#FBED21"/>
</linearGradient>
<linearGradient id="paint5_linear_4168_109459" x1="46.6325" y1="25.201" x2="54.4191" y2="28.2976" gradientUnits="userSpaceOnUse">
<stop stop-color="#F35227" stop-opacity="0"/>
<stop offset="1" stop-color="#F35227"/>
</linearGradient>
<radialGradient id="paint6_radial_4168_109459" cx="0" cy="0" r="1" gradientUnits="userSpaceOnUse" gradientTransform="translate(205.785 20.1039) scale(11.219 11.2191)">
<stop stop-color="#FFD945"/>
<stop offset="0.4169" stop-color="#FFD744"/>
<stop offset="0.6278" stop-color="#FFCF3F"/>
<stop offset="0.7926" stop-color="#FFC237"/>
<stop offset="0.9326" stop-color="#FFAF2C"/>
<stop offset="1" stop-color="#FFA325"/>
</radialGradient>
<linearGradient id="paint7_linear_4168_109459" x1="206.513" y1="22.999" x2="211.78" y2="28.2663" gradientUnits="userSpaceOnUse">
<stop stop-color="#FF7044"/>
<stop offset="1" stop-color="#F82814"/>
</linearGradient>
<linearGradient id="paint8_linear_4168_109459" x1="210.119" y1="26.2528" x2="221.648" y2="22.8709" gradientUnits="userSpaceOnUse">
<stop stop-color="#F82814" stop-opacity="0"/>
<stop offset="1" stop-color="#C0272D"/>
</linearGradient>
<linearGradient id="paint9_linear_4168_109459" x1="210.238" y1="27.5331" x2="202.398" y2="14.5692" gradientUnits="userSpaceOnUse">
<stop stop-color="#FF7044" stop-opacity="0"/>
<stop offset="1" stop-color="#FFA325"/>
</linearGradient>
<linearGradient id="paint10_linear_4168_109459" x1="210.08" y1="26.5573" x2="203.712" y2="17.5163" gradientUnits="userSpaceOnUse">
<stop stop-color="#FFD945" stop-opacity="0"/>
<stop offset="1" stop-color="#FBED21"/>
</linearGradient>
<linearGradient id="paint11_linear_4168_109459" x1="206.632" y1="25.201" x2="214.419" y2="28.2976" gradientUnits="userSpaceOnUse">
<stop stop-color="#F35227" stop-opacity="0"/>
<stop offset="1" stop-color="#F35227"/>
</linearGradient>
<clipPath id="clip0_4168_109459">
<rect width="20" height="20" fill="white" transform="translate(39 12.4844)"/>
</clipPath>
<clipPath id="clip1_4168_109459">
<rect width="20" height="20" fill="white" transform="translate(199 12.4844)"/>
</clipPath>
</defs>
</svg>
