<svg width="24" height="25" viewBox="0 0 24 25" fill="none" xmlns="http://www.w3.org/2000/svg">
<path fill-rule="evenodd" clip-rule="evenodd" d="M11 4.73828C7.13401 4.73828 4 7.87229 4 11.7383C4 15.6043 7.13401 18.7383 11 18.7383C14.866 18.7383 18 15.6043 18 11.7383C18 7.87229 14.866 4.73828 11 4.73828ZM2 11.7383C2 6.76772 6.02944 2.73828 11 2.73828C15.9706 2.73828 20 6.76772 20 11.7383C20 16.7088 15.9706 20.7383 11 20.7383C6.02944 20.7383 2 16.7088 2 11.7383Z" fill="#FFBE0F"/>
<path fill-rule="evenodd" clip-rule="evenodd" d="M15.9428 16.6816C16.3333 16.291 16.9665 16.291 17.357 16.6816L21.707 21.0316C22.0975 21.4221 22.0975 22.0553 21.707 22.4458C21.3165 22.8363 20.6833 22.8363 20.2928 22.4458L15.9428 18.0958C15.5523 17.7053 15.5523 17.0721 15.9428 16.6816Z" fill="#FFBE0F"/>
</svg>
